<?xml version="1.0" standalone="no"?>
<!DOCTYPE svg PUBLIC "-//W3C//DTD SVG 20010904//EN"
 "http://www.w3.org/TR/2001/REC-SVG-20010904/DTD/svg10.dtd">
<svg version="1.0" xmlns="http://www.w3.org/2000/svg"
 width="700.000000pt" height="700.000000pt" viewBox="0 0 700.000000 700.000000"
 preserveAspectRatio="xMidYMid meet">
<metadata>
Created by potrace 1.14, written by Peter Selinger 2001-2017
</metadata>
<g transform="translate(0.000000,700.000000) scale(0.100000,-0.100000)"
fill="#000000" stroke="none">
<path d="M3378 6415 c-2 -1 -46 -5 -98 -8 -113 -6 -280 -31 -405 -58 -49 -11
-97 -22 -106 -24 -54 -12 -241 -74 -339 -112 -371 -146 -699 -361 -985 -648
-184 -183 -284 -309 -441 -555 -181 -284 -350 -758 -390 -1095 -4 -27 -8 -52
-9 -55 -8 -13 -19 -227 -19 -360 0 -225 11 -345 50 -545 110 -577 382 -1093
794 -1505 142 -142 162 -160 280 -251 237 -182 459 -309 722 -413 120 -47 355
-120 424 -130 22 -4 55 -11 74 -16 49 -13 237 -39 328 -47 154 -12 564 -4 591
11 3 2 33 6 66 10 50 5 140 22 323 62 65 13 337 110 439 156 552 245 1021 659
1323 1167 211 355 333 705 394 1131 26 179 26 538 1 730 -13 91 -37 227 -50
280 -8 30 -16 66 -19 80 -16 84 -100 332 -148 440 -77 172 -193 377 -287 510
-320 451 -755 804 -1240 1009 -118 49 -152 63 -161 65 -3 1 -41 14 -85 28
-162 54 -411 110 -545 123 -143 14 -193 17 -327 20 -84 1 -154 1 -155 0z m298
-589 c84 -6 211 -22 235 -30 8 -3 32 -8 54 -11 137 -19 410 -113 582 -201 111
-56 316 -183 374 -232 283 -237 439 -415 597 -682 122 -208 235 -507 272 -722
5 -29 11 -62 14 -73 2 -11 7 -51 11 -90 4 -38 9 -83 11 -100 5 -37 4 -348 -1
-390 -2 -16 -6 -55 -10 -85 -8 -68 -14 -110 -20 -130 -2 -8 -7 -31 -10 -50 -3
-19 -8 -43 -11 -52 -3 -9 -7 -26 -9 -39 -29 -152 -143 -431 -247 -609 -297
-503 -755 -873 -1303 -1051 -22 -7 -42 -14 -45 -14 -3 -1 -25 -7 -50 -14 -71
-21 -259 -59 -325 -66 -33 -3 -73 -8 -90 -10 -38 -6 -371 -6 -405 -1 -14 2
-50 7 -80 10 -349 42 -706 173 -1001 368 -67 44 -131 88 -143 98 -264 220
-417 391 -569 638 -138 224 -259 540 -302 792 -14 85 -24 160 -30 220 -6 72
-7 363 -1 395 2 11 7 52 11 90 21 216 117 536 226 751 234 463 598 828 1049
1051 173 86 414 170 565 198 257 47 411 56 651 41z"/>
<path d="M3435 4373 c-210 -20 -385 -98 -536 -240 -177 -168 -275 -397 -272
-643 2 -228 86 -430 247 -598 342 -357 921 -353 1262 9 183 195 264 449 230
722 -4 29 -6 54 -6 57 3 14 -66 192 -93 240 -120 217 -339 382 -578 434 -71
16 -191 24 -254 19z"/>
</g>
</svg>
